HIERARCHY
ROOT Root
{
	OFFSET 0.00000 0.00000 0.00000
	CHANNELS 6 Xposition Yposition Zposition Zrotation Xrotation Yrotation
	JOINT Hips
	{
		OFFSET 0 0 0	
		CHANNELS 3 Zrotation Xrotation Yrotation
		JOINT Spine
		{
			OFFSET 0 4 0	
			CHANNELS 3 Zrotation Xrotation Yrotation
			JOINT Spine1
			{
				OFFSET 0 19.4 0	
				CHANNELS 3 Zrotation Xrotation Yrotation
				JOINT Spine2
				{
					OFFSET 0 16.6 0	
					CHANNELS 3 Zrotation Xrotation Yrotation
					JOINT LeftCollar
					{
						OFFSET 0 10 0	
						CHANNELS 3 Zrotation Xrotation Yrotation
						JOINT LeftArm
						{
							OFFSET 15.6 -2 3	
							CHANNELS 3 Zrotation Xrotation Yrotation
							JOINT LeftForeArm
							{
								OFFSET 3.5 -27 -1	
								CHANNELS 3 Zrotation Xrotation Yrotation
								JOINT LeftHand
								{
									OFFSET 1 -27 1	
									CHANNELS 3 Zrotation Xrotation Yrotation
									End Site
									{
										OFFSET 0 -15 0
									}
								}
							}
						}
					}
					JOINT RightCollar
					{
						OFFSET 0 10 0	
						CHANNELS 3 Zrotation Xrotation Yrotation
						JOINT RightArm
						{
							OFFSET -15.6 -2 3	
							CHANNELS 3 Zrotation Xrotation Yrotation
							JOINT RightForeArm
							{
								OFFSET -3.5 -27 -1	
								CHANNELS 3 Zrotation Xrotation Yrotation
								JOINT RightHand
								{
									OFFSET -1 -27 1	
									CHANNELS 3 Zrotation Xrotation Yrotation
									End Site
									{
										OFFSET 0 -15 0
									}
								}
							}
						}
					}
					JOINT Neck
					{
						OFFSET 0 10 0	
						CHANNELS 3 Zrotation Xrotation Yrotation
						JOINT Head
						{
							OFFSET 0 12.7 3	
							CHANNELS 3 Zrotation Xrotation Yrotation
							End Site
							{
								OFFSET 0 12.7 3
							}
						}
					}
				}
			}
		}
	}
	JOINT LeftHip
	{
		OFFSET 0 0 0	
		CHANNELS 3 Zrotation Xrotation Yrotation
		JOINT LeftUpLeg
		{
			OFFSET 8.8 -6 0	
			CHANNELS 3 Zrotation Xrotation Yrotation
			JOINT LeftLeg
			{
				OFFSET 0 -39 2	
				CHANNELS 3 Zrotation Xrotation Yrotation
				JOINT LeftFoot
				{
					OFFSET 0 -43 -2	
					CHANNELS 3 Zrotation Xrotation Yrotation
					JOINT LeftFootFront
					{
						OFFSET 0 -7 8.5	
						CHANNELS 3 Zrotation Xrotation Yrotation
						End Site
						{
							OFFSET 0 -0.5 9
						}
					}
				}
				JOINT LeftHeel
				{
					OFFSET 0 -43 -2	
					CHANNELS 3 Zrotation Xrotation Yrotation
					End Site
					{
						OFFSET 0 -7.5 -5
					}
				}
			}
		}
	}
	JOINT RightHip
	{
		OFFSET 0 0 0	
		CHANNELS 3 Zrotation Xrotation Yrotation
		JOINT RightUpLeg
		{
			OFFSET -8.8 -6 0	
			CHANNELS 3 Zrotation Xrotation Yrotation
			JOINT RightLeg
			{
				OFFSET 0 -39 2	
				CHANNELS 3 Zrotation Xrotation Yrotation
				JOINT RightFoot
				{
					OFFSET 0 -43 -2	
					CHANNELS 3 Zrotation Xrotation Yrotation
					JOINT RightFootFront
					{
						OFFSET 0 -7 8.5	
						CHANNELS 3 Zrotation Xrotation Yrotation
						End Site
						{
							OFFSET 0 -0.5 9
						}
					}
				}
				JOINT RightHeel
				{
					OFFSET 0 -43 -2	
					CHANNELS 3 Zrotation Xrotation Yrotation
					End Site
					{
						OFFSET 0 -7.5 -5
					}
				}
			}
		}
	}
}
MOTION
Frames: 14
Frame Time: 0.025
74.622 91.408 54.935 -0 0 -0 3.1486 5.3962 31.494 -6.7335 -2.319 13.98 -6.7335 -2.319 13.98 -5.6967 -1.8388 11.761 -0 0 -0 21.885 4.878 17.017 13.795 -7.049 13.845 -5.4188 26.883 1.545 -0 0 -0 -10.1 -44.196 -0.57852 31.031 -41.913 1.8362 1.3097 -6.9866 5.8214 4.2537 3.5426 -7.4305 -2.2604 2.4993 4.4427 3.1486 5.3962 31.494 -12.658 -21.274 -2.3967 -2.5584 11.237 19.69 11.051 4.7362 -50.514 0.0022933 0.00050752 -0.0020404 -0 0 -0 3.1486 5.3962 31.494 -1.7116 1.6889 -0.147 -28.092 18.539 23.538 69.094 8.8834 0.62223 0.99268 -41.968 1.1758 -0 0 -0 
76.609 91.324 55.636 -0 0 -0 3.0636 5.7284 33.01 -6.8683 -2.4536 13.25 -6.8683 -2.4536 13.25 -5.8097 -1.9555 11.15 -0 0 -0 19.696 5.2717 18.81 13.762 -7.1062 13.558 -7.8125 28.354 3.1137 -0 0 -0 -5.1969 -42.249 2.1519 31.01 -36.257 4.0093 2.3876 -1.8063 8.0055 4.52 3.862 -6.7507 -2.1293 2.711 4.5276 3.0636 5.7284 33.01 -13.599 -20.029 -3.3809 -2.9762 11.885 17.984 11.189 2.9778 -49.093 0.0032815 -0.87406 -0.0017644 -0 0 -0 3.0636 5.7284 33.01 -4.7703 -1.5696 -0.41136 -29.05 22.617 23.636 81.001 16.026 -4.3457 2.4381 -51.247 1.7843 -0 0 -0 
78.469 91.277 56.426 -0 0 -0 2.9489 6.0613 35.276 -7.0241 -2.0496 12.175 -7.0241 -2.0496 12.175 -5.9315 -1.6223 10.245 -0 0 -0 17.101 4.3244 20.121 13.067 -7.1617 15.357 -7.823 28.379 1.5881 -0 0 -0 -1.3374 -41.83 4.5593 29.505 -29.729 7.0783 4.0635 3.8592 9.5824 4.5831 3.1555 -5.936 -1.9877 2.3013 4.4116 2.9489 6.0613 35.276 -14.827 -19.237 -5.7657 -3.4377 13.303 16.76 11.341 1.149 -47.465 0.0025676 -0.87492 -0.0017319 -0 0 -0 2.9489 6.0613 35.276 -7.9713 -5.1417 -2.3209 -30.988 25.988 26.822 91.763 20.435 -11.391 2.3629 -51.486 0.17672 -0 0 -0 
80.191 91.271 57.311 -0 0 -0 2.9577 5.6749 38.605 -7.0587 -0.81143 10.733 -7.0586 -0.81143 10.733 -5.9413 -0.59301 9.0233 -0 0 -0 14.311 1.7496 20.534 11.913 -7.3627 17.649 -6.0798 26.767 -2.6691 -0 0 -0 1.3076 -43.21 7.3041 26.987 -23.082 10.799 6.2426 8.8597 9.9101 4.4769 1.2445 -4.9706 -1.7155 1.3393 4.0738 2.9577 5.6749 38.605 -15.923 -18.295 -9.5284 -3.9906 15.601 16.469 11.368 -0.78735 -46.198 0.00088109 -0.87551 -0.0015544 -0 0 -0 2.9577 5.6749 38.605 -10.832 -8.1463 -5.6729 -33.85 28.352 32.312 100.27 22.714 -18.358 2.2266 0.11938 -1.1935 -0 0 -0 
81.771 91.309 58.284 -0 0 -0 2.8737 4.4136 42.539 -6.5806 0.77573 9.0642 -6.5806 0.77573 9.0642 -5.5207 0.72182 7.6088 -0 0 -0 11.33 -1.3857 19.777 10.512 -7.7724 18.599 -3.954 23.586 -7.4766 -0 0 -0 2.535 -45.157 10.519 24.471 -16.663 14.702 8.4999 12.016 8.893 4.0794 -0.99837 -3.8548 -1.3453 0.26998 3.6823 2.8737 4.4136 42.539 -16.347 -17.313 -13.355 -4.5776 18.745 16.457 11.248 -2.8935 -45.453 0.00032646 -0.87432 -0.0018026 -0 0 -0 2.8737 4.4136 42.539 -12.914 -10.536 -9.2323 -36.977 29.618 38.783 106.56 24.046 -24.278 0.84108 -0.07402 -0.95505 -0 0 -0 
83.215 91.394 59.326 -0 0 -0 2.4401 2.952 45.825 -5.6124 1.8306 7.671 -5.6124 1.8306 7.671 -4.6985 1.5886 6.4318 -0 0 -0 8.3411 -3.9366 17.296 9.2953 -8.1903 17.148 -2.7164 19.518 -9.8881 -0 0 -0 2.2767 -45.677 13.423 22.555 -11.222 17.541 9.9 12.946 7.4059 3.5541 -2.5245 -3.0445 -0.88671 -0.52567 3.2736 2.4401 2.952 45.825 -15.826 -16.642 -15.153 -4.9354 21.948 15.499 11.093 -5.1147 -45.128 0.00087566 -0.87338 -0.0011467 -0 0 -0 2.4401 2.952 45.825 -14.104 -13.278 -11.114 -39.617 30.021 44.776 111.84 25.297 -28.924 -0.090914 -0.26754 -0.32032 -0 0 -0 
84.536 91.53 60.404 -0 0 -0 2.1586 1.4646 48.256 -4.7521 2.6958 6.7304 -4.7521 2.6958 6.7304 -3.9705 2.3024 5.6381 -0 0 -0 6.2527 -7.0207 13.225 8.4725 -8.6887 13.868 -2.6035 15.853 -8.4588 -0 0 -0 1.0289 -44.829 15.367 21.352 -7.6568 17.888 9.5994 11.955 6.5975 3.4143 -3.955 -2.7829 -0.19084 -1.3033 2.7043 2.1586 1.4646 48.256 -14.589 -15.223 -14.178 -4.6329 24.116 12.702 11.015 -7.2337 -45.033 0.0016184 -0.87321 -0.00049794 -0 0 -0 2.1586 1.4646 48.256 -14.751 -16.386 -10.521 -41.102 30.351 49.219 117.23 26.471 -32.994 0.10487 -0.10042 -0.25566 -0 0 -0 
85.746 91.714 61.486 -0 0 -0 2.4075 -0.62654 50.771 -3.9404 3.7949 5.7235 -3.9404 3.7949 5.7235 -3.2839 3.2146 4.7891 -0 0 -0 5.3596 -10.72 9.4083 7.3639 -10.065 10.569 -2.7612 13.995 -4.5685 -0 0 -0 -0.65757 -42.551 17.026 20.592 -5.8946 15.513 7.674 9.3368 6.7985 3.504 -5.4534 -2.4868 0.64988 -1.9349 2.0914 2.4075 -0.62654 50.771 -12.908 -12.061 -11.821 -3.4548 24.944 8.4462 11.002 -9.0312 -45.119 0.00089005 -0.87341 -0.00038959 -0 0 -0 2.4075 -0.62654 50.771 -14.909 -19.034 -8.4332 -40.999 30.994 51.577 122.73 27.527 -37.528 0.66764 0.44042 -0.019251 -0 0 -0 
86.857 91.943 62.54 -0 0 -0 2.8006 -3.4765 53.708 -2.7021 4.939 4.3127 -2.7021 4.939 4.3127 -2.2439 4.1627 3.6055 -0 0 -0 5.1506 -14.284 7.9426 4.9867 -12.675 8.6446 -2.3431 14.598 -0.86634 -0 0 -0 -2.5558 -38.699 18.959 19.559 -4.9166 11.476 4.8287 5.8267 7.6545 3.2391 -6.4973 -1.7434 1.3789 -2.1265 1.6137 2.8006 -3.4765 53.708 -10.828 -8.0344 -9.5122 -1.6159 24.919 3.8702 10.946 -10.378 -45.48 0.0001046 -0.87384 -0.00037698 -0 0 -0 2.8006 -3.4765 53.708 -14.122 -21.115 -5.9096 -39.352 31.587 51.947 127.27 28.315 -42.6 0.98518 0.86804 0.35204 -0 0 -0 
87.881 92.209 63.547 -0 0 -0 2.9524 -5.9087 56.528 -1.306 5.7693 2.6983 -1.306 5.7693 2.6982 -1.0781 4.8505 2.2563 -0 0 -0 5.4143 -17.817 9.3131 1.1602 -15.916 8.3461 -0.70839 17.386 0.44026 -0 0 -0 -4.2759 -34 20.437 17.511 -3.6271 7.295 1.7664 2.7158 8.6119 2.7498 -6.9637 -0.7431 1.925 -2.0063 1.2712 2.9524 -5.9087 56.528 -8.909 -4.7904 -7.3797 0.42236 24.372 -0.32886 10.771 -11.238 -46.25 -0.00013001 -0.87411 -0.00029646 -0 0 -0 2.9524 -5.9087 56.528 -12.658 -23.369 -3.0109 -36.56 31.734 50.83 129.51 28.552 -47.662 0.95321 1.0056 0.41857 -0 0 -0 
88.827 92.5 64.484 -0 0 -0 2.5513 -6.9307 58.924 -0.15843 5.9622 1.0883 -0.15843 5.9622 1.0883 -0.12536 5.0085 0.9125 -0 0 -0 6.0378 -21.269 12.553 -3.4928 -19.037 9.3952 2.9491 21.404 -1.8871 -0 0 -0 -5.9187 -29.006 20.329 14.51 -1.5663 4.0973 -1.1693 1.0792 9.3023 2.3363 -6.7902 0.31943 2.3033 -1.7482 1.0241 2.5513 -6.9307 58.924 -7.5671 -2.9507 -5.5233 2.022 23.103 -3.713 10.51 -11.603 -47.433 -0.00096632 -0.87458 -0.00024181 -0 0 -0 2.5513 -6.9307 58.924 -11.022 -26.142 0.45349 -32.928 31.174 48.626 128.77 28.24 -52.417 0.72421 0.9526 0.24135 -0 0 -0 
89.707 92.801 65.341 -0 0 -0 1.4239 -6.6804 61.023 0.73206 5.4167 -0.48861 0.73206 5.4167 -0.4886 0.61149 4.5504 -0.40555 -0 0 -0 6.9266 -24.223 16.537 -8.1872 -21.801 10.814 8.8297 25.334 -7.443 -0 0 -0 -7.8624 -23.842 17.884 11.034 1.1593 2.5178 -3.9373 1.0304 9.7453 1.9579 -5.9338 1.4347 2.5174 -1.3996 0.87521 1.4239 -6.6804 61.023 -6.8089 -2.318 -4.2682 3.0207 21.064 -6.1051 10.209 -11.455 -48.905 -0.0011875 -0.8746 -0.00031228 -0 0 -0 1.4239 -6.6804 61.023 -9.3723 -29.174 4.3337 -28.634 29.778 45.932 125.09 27.571 -56.697 0.51645 0.79965 -0.083327 -0 0 -0 
90.54 93.101 66.109 -0 0 -0 -0.24308 -5.8742 63.023 1.5213 4.3823 -2.0244 1.5213 4.3823 -2.0244 1.267 3.6848 -1.6921 -0 0 -0 8.1709 -26.583 20.788 -12.596 -24.355 10.916 15.912 28.113 -14.307 -0 0 -0 -10.22 -18.775 13.28 7.3129 4.0964 2.2428 -6.5136 1.7977 10.025 1.4947 -4.6722 2.5891 2.6184 -1.0305 0.80466 -0.24308 -5.8742 63.023 -6.4743 -2.4351 -3.6088 3.7639 18.6 -7.693 9.8334 -10.926 -50.569 -0.000744 -0.87311 -0.00057048 -0 0 -0 -0.24308 -5.8742 63.023 -7.6725 -31.979 8.303 -23.808 27.543 43.141 119.08 26.956 -60.549 0.30092 0.67269 -0.59212 -0 0 -0 
91.344 93.387 66.8 -0 0 -0 -2.1668 -5.0727 64.999 2.3018 3.1458 -3.4727 2.3018 3.1458 -3.4727 1.9204 2.652 -2.9081 -0 0 -0 9.8313 -28.384 25.15 -16.753 -26.787 8.6363 22.547 29.474 -20.403 -0 0 -0 -12.914 -14.021 7.6716 3.4829 6.6818 2.0622 -8.7068 2.5036 9.9207 0.96154 -3.3246 3.6899 2.7106 -0.71741 0.74052 -2.1668 -5.0727 64.999 -6.2695 -2.9681 -3.1803 4.4847 16.101 -8.8262 9.345 -10.23 -52.435 -0.00060442 -0.87096 -0.0012651 -0 0 -0 -2.1668 -5.0727 64.999 -5.8735 -34.276 12.099 -18.505 24.621 40.191 111.4 26.905 -64.032 -0.18018 0.61692 -1.0531 -0 0 -0 
